<svg width="143" height="150" xmlns="http://www.w3.org/2000/svg"><g fill="none" fill-rule="evenodd"><path d="M71.6.335V.326h-.017v.01L.42 35.723c0 85.543 69.985 113.752 71.163 114.224v.009s.005-.004.009-.004c.004 0 .009.004.009.004v-.009c1.18-.472 71.164-28.68 71.164-114.224L71.6.335" fill="#3498DB"/><path d="M71.623.346L71.6.336v-.01h-.018v.01L.42 35.723c0 85.543 69.985 113.752 71.163 114.224v.009s.005-.004.009-.004c.004 0 .009.004.009.004v-.009c.004 0 .016-.006.022-.009V.346" fill="#1378BA"/><path d="M71.6.335V.326h-.017v.01L.42 35.723c0 85.543 69.985 113.752 71.163 114.224v.009s.005-.004.009-.004c.004 0 .009.004.009.004v-.009c1.18-.472 71.164-28.68 71.164-114.224L71.6.335zm-.4 144.792v.005h-.019v-.005C70.08 144.684 4.61 118.288 4.61 38.267L71.18 5.158V5.15l.01.004.01-.004v.006l66.573 33.112c0 80.02-65.47 106.416-66.574 106.86z" fill="#1378BA"/><path d="M71.6.326h-.017v.01l-.071.033-.407 4.826.076-.039V5.15l.01.004.01-.004v.006l66.573 33.112c0 80.02-65.47 106.416-66.574 106.86v.004h-.019v-.005a1.076 1.076 0 0 0-.076-.032l.407 4.826.071.027v.009s.005-.004.009-.004c.004 0 .009.004.009.004v-.009c1.18-.472 71.164-28.68 71.164-114.224L71.6.335V.326" fill="#3498DB"/><path d="M71.6 2.922v-.006h-.017v.006l-68.7 34.165c0 82.584 67.562 109.817 68.7 110.274v.006s.005-.004.009-.004c.004 0 .008.004.008.004v-.006c1.14-.457 68.7-27.69 68.7-110.273L71.6 2.922zm0 140.754v.004h-.019v-.004c-1.078-.434-65.19-26.284-65.19-104.643l65.19-32.425V6.6l.01.005.009-.005v.007l65.192 32.425c0 78.359-64.112 104.21-65.192 104.643z" fill="#3498DB"/><path d="M140.3 37.087L71.6 2.922v-.006h-.017v.006l-.071.037v3.684l.069-.035V6.6l.01.005.009-.005v.007l65.192 32.425c0 78.359-64.112 104.21-65.192 104.643v.004h-.019v-.004c-.011-.007-.042-.018-.07-.029v3.684l.072.03v.006s.005-.004.009-.004c.004 0 .008.004.008.004v-.006c1.14-.457 68.7-27.69 68.7-110.273" fill="#1378BA"/><path d="M101.255 90.835c1.77-1.008 1.962-2.516 1.962-2.516s-1.602-.495-3.3.481c-.304.173-.55.37-.774.57.267-.593.497-1.188.693-1.777.474.058 1.979.14 3.398-.849 1.72-1.197 1.697-2.843 1.697-2.843s-1.772-.434-3.426.725c-.546.384-.92.839-1.19 1.275.18-.777.311-1.538.4-2.27.403-.036 2.038-.259 3.244-1.612 1.394-1.563.908-3.16.908-3.16s-1.91-.013-3.243 1.497c-.37.417-.6.855-.758 1.272.021-.675.01-1.309-.02-1.892.526-.148 1.978-.666 2.87-2.093 1.113-1.787.307-3.303.307-3.303s-1.94.3-2.999 2.019c-.204.332-.329.662-.42.983-.125-.796-.248-1.278-.264-1.344.462-.224 1.436-.81 1.909-1.958.642-1.55-.23-2.652-.23-2.652s-1.522.469-2.127 1.955c-.138.341-.195.669-.213.976a4.175 4.175 0 0 0-.566-.875c-1.243-1.468-2.81-1.44-2.81-1.44s-.297 1.508.896 2.896c.806.936 1.841 1.303 2.429 1.448.053.22.16.707.262 1.398a4.868 4.868 0 0 0-1.046-.968c-1.778-1.225-3.475-.809-3.475-.809s.11 1.646 1.808 2.799c1.06.719 2.206.883 2.908.907.044.73.057 1.548.015 2.428a4.671 4.671 0 0 0-1.287-1.52c-1.714-1.337-3.463-1.01-3.463-1.01s-.003 1.67 1.636 2.927c1.078.826 2.297 1.037 2.993 1.085a19.66 19.66 0 0 1-.515 2.744c-.15-.584-.46-1.3-1.13-1.99-1.48-1.535-3.252-1.422-3.252-1.422s-.252 1.653 1.171 3.101c.98.995 2.212 1.338 2.872 1.457-.265.8-.596 1.608-1.003 2.41a4.228 4.228 0 0 0-.914-2.106c-1.294-1.615-3.03-1.65-3.03-1.65s-.41 1.597.836 3.122c.817 1.003 1.917 1.443 2.564 1.626a16.591 16.591 0 0 1-1.066 1.59c-.097.128-.196.252-.295.38a4.007 4.007 0 0 0-.896-2.298c-1.237-1.56-2.916-1.606-2.916-1.606s-.407 1.525.786 3c.795.984 1.87 1.407 2.487 1.582-.723.89-1.452 1.71-2.18 2.464a3.802 3.802 0 0 0-.44-2.267c-.89-1.66-2.463-1.946-2.463-1.946s-.66 1.403.203 2.979c.58 1.06 1.528 1.616 2.078 1.866a36.49 36.49 0 0 1-2.542 2.293 3.928 3.928 0 0 0 .191-2.381c-.423-1.825-1.873-2.427-1.873-2.427s-1.01 1.253-.588 2.994c.3 1.245 1.164 2.01 1.615 2.337a34.401 34.401 0 0 1-2.08 1.493c.15-.472.245-1.124.047-1.875-.415-1.56-1.692-2.059-1.692-2.059s-.847 1.094-.436 2.58c.254.926.87 1.537 1.288 1.863-.794.494-1.537.907-2.213 1.251.11-.502.15-1.216-.181-2.021-.638-1.551-2.027-1.94-2.027-1.94s-.732 1.186-.108 2.662c.36.856 1.004 1.399 1.477 1.709-.515.239-.974.434-1.371.59-8.01 3.315-16.777 4.103-20.874 4.284-.408.251-.622 1.599-.42 1.794 6.745-.592 14.193-2.348 22.8-5.885.3.53.968 1.411 2.345 1.942 2.034.79 3.704.053 3.704.053s-.37-1.54-2.32-2.307c-.932-.368-1.86-.413-2.583-.362.038-.027.075-.058.113-.085.532-.276 1.104-.59 1.704-.953.314.38 1.262 1.341 3.063 1.618 2.239.345 3.69-.706 3.69-.706s-.797-1.412-2.95-1.754c-1.11-.173-2.11.01-2.825.228a33.241 33.241 0 0 0 2.287-1.63c.356.327 1.46 1.192 3.337 1.256 2.301.081 3.6-1.14 3.6-1.14s-1.02-1.308-3.24-1.39c-1.164-.045-2.152.27-2.839.58.786-.651 1.59-1.375 2.399-2.177.416.388 1.475 1.186 3.222 1.29 2.302.135 3.647-1.072 3.647-1.072s-.969-1.359-3.187-1.496c-1.244-.075-2.3.267-3 .585a39.77 39.77 0 0 0 2.032-2.288c.507.266 1.733.767 3.364.436 2.157-.437 3.001-1.927 3.001-1.927s-1.339-1.059-3.42-.635a5.364 5.364 0 0 0-1.881.783c.32-.422.612-.851.882-1.283.502.077 1.83.181 3.22-.614" fill="#FFF"/><path d="M41.524 90.767c-1.769-1.009-1.962-2.516-1.962-2.516s1.602-.495 3.3.48c.304.173.55.369.775.57a19.025 19.025 0 0 1-.694-1.776c-.474.056-1.979.138-3.399-.85-1.718-1.197-1.696-2.843-1.696-2.843s1.772-.434 3.426.725c.546.385.92.84 1.19 1.275a21.365 21.365 0 0 1-.4-2.27c-.403-.035-2.037-.26-3.244-1.611-1.395-1.563-.908-3.161-.908-3.161s1.909-.012 3.243 1.497c.369.417.602.854.757 1.271-.02-.675-.008-1.307.02-1.891-.525-.147-1.977-.666-2.867-2.094-1.115-1.785-.31-3.3-.31-3.3s1.942.297 3 2.017c.204.332.33.662.42.983.125-.795.248-1.278.265-1.343-.463-.224-1.437-.812-1.91-1.959-.641-1.55.23-2.653.23-2.653s1.522.47 2.127 1.957c.138.34.196.668.213.975.142-.287.317-.582.566-.876 1.244-1.468 2.811-1.44 2.811-1.44s.296 1.51-.897 2.897c-.805.936-1.842 1.303-2.429 1.447-.053.22-.16.708-.262 1.4a4.84 4.84 0 0 1 1.046-.968c1.777-1.226 3.475-.81 3.475-.81s-.11 1.647-1.807 2.8c-1.06.718-2.207.882-2.91.907-.043.73-.056 1.546-.014 2.426a4.664 4.664 0 0 1 1.287-1.52c1.714-1.336 3.464-1.009 3.464-1.009s.003 1.671-1.637 2.927c-1.078.826-2.296 1.037-2.993 1.086.102.88.268 1.802.516 2.743.15-.584.46-1.3 1.128-1.99 1.481-1.534 3.252-1.423 3.252-1.423s.253 1.654-1.17 3.103c-.98.994-2.213 1.338-2.872 1.456.264.8.596 1.608 1.003 2.41a4.25 4.25 0 0 1 .914-2.107c1.294-1.613 3.03-1.65 3.03-1.65s.41 1.598-.836 3.123c-.817 1.003-1.918 1.442-2.564 1.625.318.536.67 1.07 1.066 1.59.097.13.197.253.296.38a4 4 0 0 1 .895-2.297c1.237-1.56 2.916-1.606 2.916-1.606s.407 1.525-.786 3c-.795.984-1.87 1.406-2.487 1.582a38.71 38.71 0 0 0 2.18 2.465 3.808 3.808 0 0 1 .44-2.268c.89-1.66 2.464-1.946 2.464-1.946s.658 1.403-.205 2.98c-.579 1.06-1.526 1.614-2.076 1.864.858.852 1.71 1.614 2.54 2.293a3.925 3.925 0 0 1-.19-2.38c.423-1.824 1.873-2.426 1.873-2.426s1.01 1.253.588 2.993c-.3 1.245-1.163 2.01-1.614 2.337.716.557 1.41 1.05 2.078 1.493a3.345 3.345 0 0 1-.046-1.875c.415-1.56 1.692-2.058 1.692-2.058s.848 1.093.437 2.58c-.255.926-.87 1.536-1.29 1.861.795.494 1.538.908 2.214 1.252a3.362 3.362 0 0 1 .18-2.02c.64-1.551 2.028-1.94 2.028-1.94s.732 1.185.11 2.66c-.36.858-1.005 1.4-1.479 1.71.515.24.975.435 1.37.59 8.011 3.315 16.778 4.103 20.876 4.283.408.253.62 1.6.419 1.796-6.745-.593-14.192-2.35-22.8-5.887-.3.53-.969 1.412-2.345 1.944-2.034.79-3.704.053-3.704.053s.37-1.542 2.322-2.308c.93-.367 1.859-.412 2.58-.362l-.111-.084a29.684 29.684 0 0 1-1.706-.955c-.312.381-1.261 1.342-3.062 1.62-2.238.345-3.69-.707-3.69-.707s.797-1.412 2.95-1.753c1.11-.174 2.11.008 2.825.227a33.274 33.274 0 0 1-2.287-1.631c-.356.328-1.46 1.192-3.337 1.257-2.3.08-3.6-1.14-3.6-1.14s1.021-1.308 3.24-1.39c1.165-.044 2.152.27 2.839.58a36.529 36.529 0 0 1-2.399-2.177c-.415.387-1.474 1.187-3.222 1.29-2.302.135-3.647-1.071-3.647-1.071s.969-1.36 3.186-1.497c1.246-.075 2.303.268 3.002.585a39.801 39.801 0 0 1-2.033-2.288c-.507.267-1.733.768-3.364.437-2.156-.438-3.001-1.927-3.001-1.927s1.338-1.059 3.42-.635a5.335 5.335 0 0 1 1.88.783c-.318-.423-.61-.853-.881-1.283-.502.077-1.83.18-3.221-.614" fill="#FFF" opacity=".766"/><path fill="#FFF" opacity=".702" d="M102.413 52.958l4.905-7.484-27.377 4.69-8.17 30.935L63.6 50.164l-27.374-4.69 4.903 7.484 17.057 2.295 2.118 6.658-10.902-1.073 3.574 5.986 9.157.843 9.626 29.98 9.65-29.98 9.157-.843 3.574-5.986-10.904 1.073 2.119-6.658 17.058-2.295"/><path fill="#FFF" d="M102.413 52.958l4.905-7.484-27.377 4.69-8.17 30.935-.058-.223v16.627l.046.144 9.65-29.98 9.157-.843 3.574-5.986-10.904 1.073 2.119-6.658 17.058-2.295"/></g></svg>